/* XPM */
static char *a798eb13e7114ba7f66941d12196f6d2[] = {
/* columns rows colors chars-per-pixel */
"32 32 107 2 ",
"   c #5A3516",
".  c #5C3817",
"X  c #5E3918",
"o  c #613D1B",
"O  c #66421D",
"+  c #6C4721",
"@  c #714D25",
"#  c #735026",
"$  c #775329",
"%  c #785429",
"&  c #815E2F",
"*  c #876332",
"=  c #896635",
"-  c #8E6C39",
";  c #936F39",
":  c #94713A",
">  c #A1672A",
",  c #AA7131",
"<  c #AF7935",
"1  c #B07B36",
"2  c #B27E3A",
"3  c #C2732D",
"4  c #C57A33",
"5  c #987740",
"6  c #9D7C42",
"7  c #B6823C",
"8  c #B9853E",
"9  c #CA833A",
"0  c #D9973F",
"q  c #D9983F",
"w  c #A38246",
"e  c #A88446",
"r  c #A68649",
"t  c #AA8749",
"y  c #AA8B4C",
"u  c #B68341",
"i  c #B88441",
"p  c #BD8D44",
"a  c #B3924F",
"s  c #B39452",
"d  c #B79955",
"f  c #BC9B54",
"g  c #BD9E59",
"h  c #BFA15A",
"j  c #CF8E43",
"k  c #C79446",
"l  c #C99343",
"z  c #C4954A",
"x  c #C6984B",
"c  c #CA9B4C",
"v  c #DB9D44",
"b  c #D39549",
"n  c #D2984B",
"m  c #C49F56",
"M  c #CB9E51",
"N  c #DDA147",
"B  c #D3A24F",
"V  c #DEA44A",
"C  c #CDA253",
"Z  c #C4A45C",
"A  c #C6A85F",
"S  c #CDAB5D",
"D  c #D2A454",
"F  c #DAA551",
"G  c #D6A956",
"H  c #DDAB55",
"J  c #D1A758",
"K  c #D3AB5A",
"L  c #DBAE5A",
"P  c #D6B05F",
"I  c #DBB15D",
"U  c #E1A94F",
"Y  c #E2AC53",
"T  c #E3B056",
"R  c #E3B45C",
"E  c #E8B75C",
"W  c #E8B95E",
"Q  c #CBAD61",
"!  c #D0AE60",
"~  c #D3B364",
"^  c #DBB562",
"/  c #DEBA65",
"(  c #DBBC6A",
")  c #E2B760",
"_  c #E4BB63",
"`  c #EABD63",
"'  c #E1BD69",
"]  c #E7C067",
"[  c #ECC266",
"{  c #E5C36C",
"}  c #EBC56B",
"|  c #EEC96D",
" . c #F0C96D",
".. c #E4C671",
"X. c #E5C974",
"o. c #ECCC73",
"O. c #F2CE72",
"+. c #EED077",
"@. c #EED279",
"#. c #F3D376",
"$. c #F3D67A",
"%. c #F6DA7D",
"&. c #F8DC7F",
"*. c #F6DC80",
"=. c #F8DE81",
"-. c #FAE184",
";. c None",
/* pixels */
";.;.;.;.;.;.;.;.;.;.;.;.=.=.=.=.*.*.@.+.;.;.;.;.;.;.;.;.;.;.;.;.",
";.;.;.;.;.;.;.;.;.O.$.&.&.$.+.{ { / / / ' { ' ;.;.;.;.;.;.;.;.;.",
";.;.;.;.;.;.;.[  .#.$.#.| o.o.| o.{ { P J C K P K ;.;.;.;.;.;.;.",
";.;.;.;.;.;.` | #.O.' o.o.+.+.@.+.o.o.{ ' ^ M z C C ;.;.;.;.;.;.",
";.;.;.;.;.E [ | } '  .O.$.&.=.=.$.#.o.| { ' ^ K p p x ;.;.;.;.;.",
";.;.;.;.T [ [ _ }  .%.%.=.=.=.-.=.%.$.+.} _ ^ ^ P p p p ;.;.;.;.",
";.;.;.Y W ] _ ]  .$.#.%.=.=.-.-.=.%.$.@.o.{ R I L J p 7 8 ;.;.;.",
";.;.V T ` ) _  . . .#.&.=.=.-.-.-.%.$.+.o...^ L G J M 8 7 ;.;.;.",
";.;.V W R ) |  .] m ' %.=.=.-.-.*.*.*.@.| L n I G B J k 7 < ;.;.",
";.v U E R `  .[  .~ ; ~ *.=.-.-.*.*.*.} n 9 K ^ K B M B p 1 ;.;.",
";.v T H E [ [ [  .O.f % h *.-.-.*.$.) 9 3 D / ^ K C c M z 8 , ;.",
";.N T R W [ ` [  .O.O.w O r @.=.+.F 4 3 j ' / ^ K C c k M p , ;.",
"v N F L [ ` ` [  .O.#.| * X - ( j 3 3 4 _ { ' ^ J C c k c z < ;.",
"0 V T H [ E ` [  .O.#.&.( @   $ i 4 3 F o.{ / ^ J C c l c x u > ",
"0 V H R [ E ` [  .O.#.%.&.y .   + i b o.o...' ^ L C z l z M p > ",
"0 V H T [ E ` [  .O.#.&.o.&       $ ~ *.o.../ ~ K C z l z x z > ",
"q V H R [ E ` [  .O.$.$.y       X X - ..o.} ' ^ J C x j z m z > ",
"q V F H [ W ` [  .O.$.~ O   X 5 d @ X w ..../ ^ K C x j z M z > ",
"q v F E [ W ` [  .O...%   $ A *.=.( = O s } / ^ K C x k c C p > ",
";.v N T ` [ [ [  . .r O 5 X.-.-.=.*.X.w $ Z ' ^ K C n z c J 2 ;.",
";.v V R R [ [ [  .S * Z $.-.-.-.=.*.+.X.d ; ! ^ L C n c c J , ;.",
";.v N F R [ [ [ [ Z ' $.*.-.-.-.*.*.*.*.X.S a P J M c C J z , ;.",
";.;.N V I W  .[  .O.#.o.@.*.@.*.*.*.+.....{ ^ P K B C M J 7 ;.;.",
";.;.V V T ) [  .| O.S y h A y y m ~ Z 6 e ' ' ^ G D J K c 2 ;.;.",
";.;.;.U V T _ [ #.O.t Z a w ..s r Q h Z w ~ _ I G K K J 8 ;.;.;.",
";.;.;.Y Y U R ] | #.Z t 6 d s y g r s w w ^ R P I K I x ;.;.;.;.",
";.;.;.;.T T U ) ] } +.{ X.%.X.@.$.....^ _ _ / ^ L I M p ;.;.;.;.",
";.;.;.;.;.E E T R ] } +.#.$.$.$.@.o.o.} { ' _ I I C x ;.;.;.;.;.",
";.;.;.;.;.;.` [ W E _ } } +.o.+.+.o.o.] { I _ ^ L ;.;.;.;.;.;.;.",
";.;.;.;.;.;.;.;. . .[ W _ } ] } ] { ] _ ] ] ' I ;.;.;.;.;.;.;.;.",
";.;.;.;.;.;.;.;.;.;.#.$.#.O.+.O. .+.o.o.o...;.;.;.;.;.;.;.;.;.;.",
";.;.;.;.;.;.;.;.;.;.;.;.;.;.-.-.=.%.;.;.;.;.;.;.;.;.;.;.;.;.;.;."
};
