/* XPM */
static char *fa3f1d5146b44e309edaab84f3d716d8[] = {
/* columns rows colors chars-per-pixel */
"64 64 135 2 ",
"   c #593415",
".  c #5E3A19",
"X  c #623D1B",
"o  c #66411D",
"O  c #68441E",
"+  c #694520",
"@  c #6E4A23",
"#  c #714E25",
"$  c #755127",
"%  c #765329",
"&  c #79562B",
"*  c #7C5A2D",
"=  c #815D2F",
"-  c #815E30",
";  c #9E6227",
":  c #9D6328",
">  c #856232",
",  c #8D6A37",
"<  c #8F6D39",
"1  c #916E3A",
"2  c #94723C",
"3  c #98763E",
"4  c #9B783F",
"5  c #A1672A",
"6  c #A56B2D",
"7  c #AB7332",
"8  c #AE7936",
"9  c #B17B36",
"0  c #B27D39",
"q  c #C1712C",
"w  c #C67B34",
"e  c #9C7B42",
"r  c #A17F44",
"t  c #B5823B",
"y  c #B8863E",
"u  c #CA833B",
"i  c #CC893F",
"p  c #D7953D",
"a  c #D8963E",
"s  c #D9983F",
"d  c #A48246",
"f  c #A98547",
"g  c #A58649",
"h  c #AC8B4C",
"j  c #BD8B43",
"k  c #AF904F",
"l  c #BF9045",
"z  c #B4924F",
"x  c #AF9151",
"c  c #B29351",
"v  c #B79A56",
"b  c #BC9A54",
"n  c #BD9F5A",
"m  c #BFA25B",
"M  c #C38E42",
"N  c #CD8C41",
"B  c #D08F43",
"V  c #C29146",
"C  c #CB9443",
"Z  c #CD9847",
"A  c #C49549",
"S  c #C99648",
"D  c #C79A4D",
"F  c #CA9B4D",
"G  c #D19642",
"H  c #D29945",
"J  c #DB9D44",
"K  c #D19649",
"L  c #D39D4B",
"P  c #C09D55",
"I  c #CB9F51",
"U  c #CEA04F",
"Y  c #DDA147",
"T  c #D5A34F",
"R  c #DDA34A",
"E  c #C5A056",
"W  c #CEA354",
"Q  c #C3A35B",
"!  c #CAA75B",
"~  c #C5A85F",
"^  c #CAA95E",
"/  c #D3A554",
"(  c #D9A652",
")  c #D4A957",
"_  c #DDAB54",
"`  c #D3A658",
"'  c #D4AB5A",
"]  c #DBAE5B",
"[  c #D7B05F",
"{  c #DAB25E",
"}  c #E0A74D",
"|  c #E1A94F",
" . c #E2AD53",
".. c #E0AF58",
"X. c #E4B156",
"o. c #E4B45B",
"O. c #E8B75C",
"+. c #E6B85E",
"@. c #E9B95E",
"#. c #C6AA60",
"$. c #CDAE61",
"%. c #D0AE60",
"&. c #CFB366",
"*. c #D5B565",
"=. c #DCB562",
"-. c #DFBA66",
";. c #D7BB6C",
":. c #DBBC6A",
">. c #E1B761",
",. c #E4BB63",
"<. c #EABD62",
"1. c #E2BF69",
"2. c #DDC06E",
"3. c #DFC371",
"4. c #E7C067",
"5. c #ECC266",
"6. c #E6C36C",
"7. c #ECC56B",
"8. c #EFC86D",
"9. c #F1CB6E",
"0. c #E4C671",
"q. c #E8C770",
"w. c #E5CA74",
"e. c #ECCC73",
"r. c #F2CE71",
"t. c #EED077",
"y. c #EED379",
"u. c #F3D175",
"i. c #F3D57A",
"p. c #F5D97D",
"a. c #F8DC7F",
"s. c #F6DC80",
"d. c #F8DE81",
"f. c #FAE184",
"g. c None",
/* pixels */
"g.g.g.g.g.g.g.g.g.g.g.g.g.g.g.g.g.g.g.g.g.g.g.g.g.g.f.f.f.f.f.f.f.d.s.s.y.i.g.g.g.g.g.g.g.g.g.g.g.g.g.g.g.g.g.g.g.g.g.g.g.g.g.g.",
"g.g.g.g.g.g.g.g.g.g.g.g.g.g.g.g.g.g.g.g.g.g.i.p.a.a.f.f.f.f.f.f.f.d.s.p.p.y.t.t.t.8.g.g.g.g.g.g.g.g.g.g.g.g.g.g.g.g.g.g.g.g.g.g.",
"g.g.g.g.g.g.g.g.g.g.g.g.g.g.g.g.g.g.g.u.i.i.p.p.s.s.a.a.i.u.e.q.q.0.0.q.w.e.t.t.w.w.q.6.g.g.g.g.g.g.g.g.g.g.g.g.g.g.g.g.g.g.g.g.",
"g.g.g.g.g.g.g.g.g.g.g.g.g.g.g.g.g.9.9.r.u.i.p.p.p.i.u.8.w.0.6.-.1.=.' ` W I I ' -.6.q.1.1.-.g.g.g.g.g.g.g.g.g.g.g.g.g.g.g.g.g.g.",
"g.g.g.g.g.g.g.g.g.g.g.g.g.g.g.g.7.9.9.u.u.s.s.i.t.i.t.-.1.i.e.' e.t.-.=.e.4.' E V j I %.1.-.=.{ g.g.g.g.g.g.g.g.g.g.g.g.g.g.g.g.",
"g.g.g.g.g.g.g.g.g.g.g.g.g.g.5.7.8.9.i.d.s.s.u.q.' e.u.t.w.r.u.e.e.8.t.6.8.e.' 6.1.' A j l ' =.%.' ' g.g.g.g.g.g.g.g.g.g.g.g.g.g.",
"g.g.g.g.g.g.g.g.g.g.g.g.g.5.5.7.9.p.s.y.,.[ r.r.e.e.r.e.q.u.y.w.e.t.t.6.e.8.6.7.8.=.%.=.A 0 j ' ' ' W g.g.g.g.g.g.g.g.g.g.g.g.g.",
"g.g.g.g.g.g.g.g.g.g.g.@.@.5.5.r.p.r.7.9.8.6.r.9.e.q.i.d.t.p.s.i.i.a.t.w.i.e.1.w.7.1.6.1.-.D j 0 A ! W I g.g.g.g.g.g.g.g.g.g.g.g.",
"g.g.g.g.g.g.g.g.g.g.O.O.@.5.u.a.7.' =.r.7.7.1.i.a.i.i.a.i.u.i.p.r.r.9.8.8.8.q.t.8.:.1.1.-.=.-.D 8 j I W D A g.g.g.g.g.g.g.g.g.g.",
"g.g.g.g.g.g.g.g.g.X.O.@.5.u.8.<.8.8.4.6.e.u.u.i.u.i.a.d.d.f.f.f.s.s.p.i.t.8.4.4.4.4.6.4.=.,.>.{ l 0 9 A D A l g.g.g.g.g.g.g.g.g.",
"g.g.g.g.g.g.g.g.X.X.O.5.u.8.] ] 7.4.8.5.u.p.p.p.a.a.f.f.f.f.f.f.f.s.s.p.p.y.t.e.4.+.,.1.[ -.=.=.%.' y 9 V A l g.g.g.g.g.g.g.g.g.",
"g.g.g.g.g.g.g.| X.X.@.u.7.<.5.4.>.8.r.i.a.i.i.a.a.d.f.f.f.f.f.f.s.s.s.s.p.i.i.t.e.e.,.o.>.1.,.' =.>.E t 8 l V y g.g.g.g.g.g.g.g.",
"g.g.g.g.g.g.g. .X.O.r.,.I <.,.4.5.r.a.i.u.u.u.a.a.f.f.f.f.f.f.f.f.s.s.p.p.y.y.t.e.e.q.4.{ o.{ ' ] ] / D j 8 j j y g.g.g.g.g.g.g.",
"g.g.g.g.g.g.|  .o.9.5.,.+.,.,.7.r.a.u.r.i.u.a.a.a.a.f.f.f.f.f.f.f.f.s.s.p.p.y.t.e.e.6.6.4.{ _ ] =.' { =.W t 8 j y t g.g.g.g.g.g.",
"g.g.g.g.g.} } X.5.<.o.<.O.4.,.r.i.r.r.u.i.i.u.a.a.a.d.f.f.f.f.f.s.f.a.p.y.p.y.t.e.w.q.6.4.-.{ _ ) W ' _ ) y 9 t y t 9 g.g.g.g.g.",
"g.g.g.g.g.R | @.8._ / ,.<.5.r.i.9.] 5.u.u.i.a.a.a.a.f.f.f.f.f.f.f.s.a.p.p.y.y.t.e.e.q.6.:._ / ] R / ' ' ) W V 9 t t 9 g.g.g.g.g.",
"g.g.g.g.R }  .5.O.+.+.+.] 9.p.9.8.=.f =.u.i.p.p.a.d.f.f.f.f.f.f.s.s.s.s.s.t.s.t.e.w.q.,.K N { { ' R / I / { ) y t t 9 7 g.g.g.g.",
"g.g.g.g.Y } @.<.o.@.o.4.7.i.5.9.5.9.E - ^ u.i.p.a.a.f.f.f.f.f.f.d.s.s.t.s.s.e.t.e.0.] u w ' =.{ [ ) T F W / W t t t 9 8 g.g.g.g.",
"g.g.g.Y Y  .5.( / ] ] @.u.9.5.5.9.9.9.f @ z u.a.a.d.f.f.f.f.f.f.d.d.s.s.t.t.s.q.8.L w q K -.=.[ ' ) T L W U ) U y y t 7 7 g.g.g.",
"g.g.g.J R O.+.o.+.+.X.9.r.5.5.5.9.9.r.7., o 4 q.a.d.f.f.f.f.f.f.d.d.s.s.s.s.t.>.N q q N =.-.=.=.' ) W J Z A W ' D y t 7 7 g.g.g.",
"g.g.J Y | <. .+.X.O.5.u.5.5.5.9.9.9.r.r.=.% . - ;.s.f.f.f.f.f.f.f.d.s.s.s.e.( w q q w ] 0.=.=.[ ' ' W U L A U W A y j 8 7 6 g.g.",
"g.g.s J  .O.Z .._ X.9.9.O.5.5.5.8.9.r.u.u.Q O   # #.s.f.f.f.f.f.f.s.s.s.,.N q q q q L 6.4.-.=.=.%.' W U L Z U D W y l t 7 5 g.g.",
"g.g.s Y +._ o.o.O.X.u.5.@.5.5.9.8.9.r.u.u.u.h .   o x y.f.f.f.f.d.d.t.( w q q q q N 1.6.2.-.=.{ ' ) ! E Z H l D ) W l j 7 6 g.g.",
"g.s J } O. .+...O.5.9.O.O.5.5.5.8.9.r.u.u.i.e.,     . e y.f.f.f.d.q.B q q q q q w >.0.6.4.-.=.[ ' ' W U D H V S I W y D 8 6 5 g.",
"g.s J | X.H o._ _ u.4.@.<.5.5.5.8.9.9.u.u.a.p.4.&       - ;.s.p.] w q q q q q q T e.6.6.4.:.=.=.' / W I D Z C I Z I 0 I 0 6 5 g.",
"g.s J  ._ ( o._ ..u.@.@.@.5.5.5.8.9.r.r.u.u.u.a.^ O       @ m 1.w q q q q q q i 6.e.6.6.4.-.=.[ ' ' W U D S G j A / A I j 6 5 g.",
"g.s J X._ +. .o.5.r.O.@.@.5.5.5.9.9.r.u.u.p.u.p.p.h .       X d ] w q q q q w >.e.w.0.6.2.-.=.{ ' ' W E D S G M A U W D D 6 5 g.",
"g.s J X.R o..._ 5.5.O.@.@.5.5.8.9.9.9.u.u.u.p.a.a.y.1         . , ` u q q q ( t.r.w.6.6.1.-.=.=.' ' W I D A G V F I l j ` 6 5 g.",
"s s Y  .G ( _ ( 8.4.O.O.@.5.5.8.8.9.r.u.u.u.p.a.a.d.0.%           - ` w q N e.s.e.e.6.6.4.-.=.{ ' ' W E D A C M j D I j %.7 5 g.",
"s s Y  ._ +.X.O.r.@.O.@.@.5.5.5.8.9.9.u.u.p.u.p.a.d.y.>           . 2 ] u ,.s.e.e.e.q.6.2.-.=.{ ' ' W E D A C C j I / A =.8 5 g.",
"p a Y  .| O... .r.@.O.@.@.5.5.8.8.9.9.u.u.u.p.p.a.a.b .             . r ,.e.e.e.e.w.0.0.4.-.=.*.' / W U D A C C D A W j -.8 5 ; ",
"p a Y | H ] T ( r.@.O.@.@.5.5.5.9.9.9.u.u.p.p.a.a.2.#                 X n s.e.s.e.e.6.0.4.-.=.=.' ) / E D l C i j V D t -.8 5 ; ",
"p s Y | Z o.] o.r.O.O.O.<.<.5.5.9.9.r.u.u.i.p.a.y.<                     # *.s.s.e.q.q.6.1.-.=.=.' ` W I D A S C y F / l 1.8 5 : ",
"p s Y } _ O.X.X.r.@.O.O.<.5.5.8.9.9.r.r.u.i.i.p.v .                       - 2.0.t.q.q.6.1.-.=.[ [ ` W I D A C C D D / A 0.7 5 : ",
"a s Y } R +._ T r.<.O.O.@.5.5.5.8.9.r.u.u.p.i.:.#             & x =       . 2 q.t.q.q.6.1.-.-.=.%.` W I D A C i l F A l 6.7 5 g.",
"s s J R C ( X...9.5.O.O.<.<.5.8.8.9.r.u.u.u.y.1           X e w.s.0.2 .     . h e.q.6.6.1.-.=.[ [ ` ! I D A G M y I F A 1.7 5 g.",
"g.s J R R o...X.5.9.O.@.<.<.5.5.8.9.9.r.u.u.b X         * #.s.f.s.s.s.r +     O n q.q.6.6.=.=.[ ' ` / I D A G V D U W E %.7 5 g.",
"g.s J R R X.+._ X.r.O.@.@.5.5.8.8.9.r.r.u.;.#       X r y.f.f.f.s.s.s.s.$.&     $ *.q.6.1.1.=.=.' ` W I F A G V F I F =.W 6 5 g.",
"g.s J Y } L o.} O.r.<.@.@.5.5.8.9.9.r.u.e.e       * #.s.f.f.f.f.d.d.s.s.s.:.2 .   > :.6.1.=.=.] ' ' W I D Z C j A F t 6.V 6 5 g.",
"g.s J J R K ..X.O.8.8.@.@.5.5.5.9.9.r.r.b X   X r w.f.f.f.f.f.f.d.d.s.s.s.s.s.r +   4 1.1.1.=.=.%.' W I F H S A I / A 6.0 6 5 g.",
"g.s J J Y R +.+...+.r.<.<.<.5.8.9.9.r.>.$   = ! i.d.f.f.f.f.f.f.f.d.s.s.s.q.s.e.Q % X r :.1.=.[ ' ) W E F H S W I / / =.7 6 g.g.",
"g.g.J Y Y R _ +._ o.r.8.<.<.5.5.8.9.7.2 O r 0.i.d.d.f.f.f.f.f.f.d.d.s.s.s.s.q.e.s.%.1 % P 1.=.[ ' ) W U H C l A I j 1.D 7 6 g.g.",
"g.g.J J Y R Z _ ..o.5.u.<.<.5.8.8.9.D > ! u.p.p.s.d.f.f.f.f.f.f.d.s.s.s.s.q.s.q.e.e.1.r > ` =.[ ' ' W U L I I / / A 6.0 7 6 g.g.",
"g.g.g.J R J R o.<.>...r.8.<.5.7.8.<.P 1.u.i.p.p.s.s.f.f.f.f.f.f.d.s.s.s.s.s.e.s.t.q.q.q.P r [ [ ' ' W L Z I W / I =.' 8 7 g.g.g.",
"g.g.g.J Y R Y  .>.o...<.i.5.5.9.7.9.9.u.u.i.p.p.s.f.f.f.f.f.f.f.d.d.s.s.s.s.s.e.e.e.q.6.1.` ` [ ' ' W J F A / D I 7.j 7 7 g.g.g.",
"g.g.g.J Y R J R K >.o.<.9.i.5.5.8.9.r.u.u.i.u.9.w.s.f.f.s.w.s.f.s.s.s.s.s.3.0.0.e.q.q.6.1.-.=.=.' ' T W W / ' V =.' 9 7 g.g.g.g.",
"g.g.g.g.Y } R Y ( ,.@.>.X.u.u.5.8.9.9.u.i.*.1 = - x s.&., - - n s.r v s.e.4 = - 1 %.q.6.1.:.=.[ ' R T D ) ) ' / 1.j 9 8 g.g.g.g.",
"g.g.g.g.g.R } R R X.<.>.<.5.i.u.9.9.r.u.7.= 2 :.;.#.w.* g 3.x % 2.< r s.s.= 4 $., = :.6.1.-.=.=._ ) ) W ) I I ,.W t 9 g.g.g.g.g.",
"g.g.g.g.g.} | | J R F >.+.<.<.i.u.r.r.u.' # ;.*.Q *.&.# 3.f.w.# #.< r s.i.> h t.^ @ ^ 6.1.-.=. .( ' ' ) { A { =.j t 9 g.g.g.g.g.",
"g.g.g.g.g.g.|  .| Y | <.<.>.>.9.i.p.u.u.! # :.b - > ~ # w.f.w.% ~ < d s.y.> f t.$.@ ^ 6.4.,.] _ ' W ' { _ ' 4.A y t g.g.g.g.g.g.",
"g.g.g.g.g.g.| | X.} J o.] ,.<.4.5.u.a.u.1.$ h q.h - ;.@ m y.m # 2.< e w.w.> d :.e & :.4.=...] =.{ { { A ' 4.U j y g.g.g.g.g.g.g.",
"g.g.g.g.g.g.g. .X.X.| Y ( >.<.4.>.8.u.i.i.P * = % e i.x & - * v s.e $ - c 2 $ = - E 6.+.o.=.' ' { +.' ) 4./ l j y g.g.g.g.g.g.g.",
"g.g.g.g.g.g.g.g.X.X.o.} R o.<.4.5.8.9.8.i.i.q.:.2.y.f.d.w.:.e.f.s.w.3.3.w.0.;.:.4.,.+.,.=.,.-.-.' ' ' 4.' A l y g.g.g.g.g.g.g.g.",
"g.g.g.g.g.g.g.g.g.X.O.O.| R o./ 1.<.1.1.u.u.i.i.p.a.a.f.f.f.f.f.f.s.s.s.i.r.8.4.,.4.7.:.=.=.,.1.W ' 4.' D A A g.g.g.g.g.g.g.g.g.",
"g.g.g.g.g.g.g.g.g.g.O.O.<.X.Y  .1.8.6.8.q.8.6.i.p.i.i.i.p.i.i.i.u.u.e.8.7.7.7.8.6.:.4.4.0.' =.{ +.4.) U D S g.g.g.g.g.g.g.g.g.g.",
"g.g.g.g.g.g.g.g.g.g.g.O.<.<.@.} } ,.` 7.5.q.8.e.t.6.p.a.i.i.p.u.u.i.u.e.t.e.0.w.7.1.0.6.4.` ] <.=.' W U D g.g.g.g.g.g.g.g.g.g.g.",
"g.g.g.g.g.g.g.g.g.g.g.g.<.<.5.5.X.} | <.r.>.7.8.8.w.t.t.0.i.i.w.e.i.e.6.e.8.4.w.8.7.W =.,.,.,.{ ' ) W g.g.g.g.g.g.g.g.g.g.g.g.g.",
"g.g.g.g.g.g.g.g.g.g.g.g.g.g.5.7.8.5.X.} X.>.6.r.q.1.u.r.e.u.r.e.t.e.t.6.t.e.6.[ 6.6.1.+.+.,.=.{ ' ' g.g.g.g.g.g.g.g.g.g.g.g.g.g.",
"g.g.g.g.g.g.g.g.g.g.g.g.g.g.g.7.9.9.9.7.O.| | <.6.,.r.i.%.e.u.7.=.t.u.[ -.e.8.=.,.+.,.,.1.-.=.{ ' g.g.g.g.g.g.g.g.g.g.g.g.g.g.g.",
"g.g.g.g.g.g.g.g.g.g.g.g.g.g.g.g.g.9.r.u.u.r.7.O.| X.o.<.<.6.e.8.1.7.8.4.,.+.+.+.4.7.6.6.1.-.=.g.g.g.g.g.g.g.g.g.g.g.g.g.g.g.g.g.",
"g.g.g.g.g.g.g.g.g.g.g.g.g.g.g.g.g.g.g.u.u.p.i.a.p.u.8.<.<.o.o.O.o.@.+.<.5.8.e.e.e.e.0.6.4.g.g.g.g.g.g.g.g.g.g.g.g.g.g.g.g.g.g.g.",
"g.g.g.g.g.g.g.g.g.g.g.g.g.g.g.g.g.g.g.g.g.u.i.a.a.d.d.f.f.f.d.a.a.p.s.s.p.i.y.t.e.e.g.g.g.g.g.g.g.g.g.g.g.g.g.g.g.g.g.g.g.g.g.g.",
"g.g.g.g.g.g.g.g.g.g.g.g.g.g.g.g.g.g.g.g.g.g.g.g.g.d.d.f.f.f.f.f.f.a.s.p.p.i.y.g.g.g.g.g.g.g.g.g.g.g.g.g.g.g.g.g.g.g.g.g.g.g.g.g.",
"g.g.g.g.g.g.g.g.g.g.g.g.g.g.g.g.g.g.g.g.g.g.g.g.g.g.g.g.g.g.g.g.g.g.g.g.g.g.g.g.g.g.g.g.g.g.g.g.g.g.g.g.g.g.g.g.g.g.g.g.g.g.g.g."
};
