/* XPM */
static char *_88649795fdf49e6a775d91449313b64[] = {
/* columns rows colors chars-per-pixel */
"16 16 175 2 ",
"   c #5E3918",
".  c #735027",
"X  c #7A572B",
"o  c #7E5C2E",
"O  c #82582A",
"+  c #926E39",
"@  c #95733D",
"#  c #AB7433",
"$  c #AF7A37",
"%  c #997841",
"&  c #A07F44",
"*  c #B3803B",
"=  c #B5823A",
"-  c #B6823B",
";  c #B4803C",
":  c #B5833D",
">  c #C0813B",
",  c #CC883E",
"<  c #A58245",
"1  c #A58548",
"2  c #BF8E45",
"3  c #B29352",
"4  c #B69653",
"5  c #B89551",
"6  c #B89651",
"7  c #B69854",
"8  c #B79854",
"9  c #BA9B56",
"0  c #BC9A55",
"q  c #BEA05B",
"w  c #C08F45",
"e  c #D08F44",
"r  c #C39348",
"t  c #C79648",
"y  c #C6964A",
"u  c #C99749",
"i  c #C7994D",
"p  c #C99849",
"a  c #C8984B",
"s  c #C99A4D",
"d  c #CB9B4C",
"f  c #C99B4E",
"g  c #C99C4E",
"h  c #CA9C4E",
"j  c #CA9C4F",
"k  c #CC9C4D",
"l  c #DB9D44",
"z  c #DB9F45",
"x  c #DC9F46",
"c  c #DC9F47",
"v  c #D39A4D",
"b  c #C39F56",
"n  c #DCA046",
"m  c #DEA44A",
"M  c #DDA74E",
"N  c #CCA152",
"B  c #CFA556",
"V  c #C5A35A",
"C  c #CEA95B",
"Z  c #C9A95D",
"A  c #D0A453",
"S  c #D1A454",
"D  c #D0A656",
"F  c #D1A656",
"G  c #D4A755",
"H  c #D9A656",
"J  c #D4A856",
"K  c #DFAC54",
"L  c #D7AA59",
"P  c #D7AC5A",
"I  c #D7AD5A",
"U  c #D9B05E",
"Y  c #D8B15F",
"T  c #DDB25E",
"R  c #E1AC52",
"E  c #E2AE52",
"W  c #E0AE55",
"Q  c #E2AE54",
"!  c #E0AF57",
"~  c #E1AF57",
"^  c #E1B057",
"/  c #E4B257",
"(  c #E2B35B",
")  c #E4B359",
"_  c #E5B85F",
"`  c #E7B95E",
"'  c #E6B95F",
"]  c #D1B062",
"[  c #D4B363",
"{  c #D0B164",
"}  c #D6B565",
"|  c #DAB261",
" . c #DAB461",
".. c #DEB560",
"X. c #DEB661",
"o. c #DCB663",
"O. c #DCB763",
"+. c #DEB762",
"@. c #DDB864",
"#. c #D3B769",
"$. c #D9BC6B",
"%. c #DFBD69",
"&. c #DABE6C",
"*. c #E7BC62",
"=. c #E7BD63",
"-. c #E0BA65",
";. c #E4BE67",
":. c #E9BB60",
">. c #E8BC62",
",. c #E9BC62",
"<. c #E9BD62",
"1. c #EABE64",
"2. c #E8BF66",
"3. c #E1BE69",
"4. c #E3BF69",
"5. c #E4BE69",
"6. c #E9C167",
"7. c #ECC065",
"8. c #EDC266",
"9. c #EDC367",
"0. c #E5C069",
"q. c #E2C16C",
"w. c #E3C36D",
"e. c #E4C36D",
"r. c #E5C36D",
"t. c #E7C66E",
"y. c #EAC268",
"u. c #E8C36B",
"i. c #EDC468",
"p. c #EDC66A",
"a. c #EEC66A",
"s. c #EBC66D",
"d. c #EBC76D",
"f. c #EBC56E",
"g. c #EDC76D",
"h. c #EBC86F",
"j. c #EEC96E",
"k. c #E1C673",
"l. c #E7C972",
"z. c #E7CC76",
"x. c #E8C870",
"c. c #EAC970",
"v. c #EBCB72",
"b. c #ECCA70",
"n. c #EDCA70",
"m. c #EFCC71",
"M. c #EDCD72",
"N. c #ECCC73",
"B. c #EECD73",
"V. c #E9CB74",
"C. c #E9CC75",
"Z. c #EECD74",
"A. c #EDCE74",
"S. c #EECE74",
"D. c #ECCF77",
"F. c #F1CC70",
"G. c #EFD379",
"H. c #F1D175",
"J. c #F2D176",
"K. c #F3D377",
"L. c #F4D277",
"P. c #F1D47A",
"I. c #F4D679",
"U. c #F5D679",
"Y. c #F0D67D",
"T. c #F3D77D",
"R. c #F5D87C",
"E. c #F4D97C",
"W. c #F7DA7D",
"Q. c #F6DB7F",
"!. c #F7DD80",
"~. c #F8DD80",
"^. c #F9DE81",
"/. c #FAE184",
"(. c None",
/* pixels */
"(.(.(.(.(.U.W.G.N.w.3.(.(.(.(.(.",
"(.(.(.i.n.B.B.N.x.0.Y B N (.(.(.",
"(.(.` y.f.J.W.!.W.N.0.Y i 2 (.(.",
"(.E ` 6.n.U.^./.Q.P.t.T J w = (.",
"(.Q *.i.O.] !./.^.N.H L J h = (.",
"n Q >.7.j.5 3 Y.f.e v O.F d w # ",
"c ! >.7.F.N.@ + > , 5.@.F u y $ ",
"c ^ :.7.F.U.9   O | t.@.F y a ; ",
"c ! :.7.F.q.X . o < w.@.B t h : ",
"l Q >.7.g.< % k.z.1 6 @.D a h * ",
"(.M >.i.O.Z Y./.Q.D.V C F d h (.",
"(.m ( i.j.} &.#.&.{ ]  .G F r (.",
"(.(.E *.j.9 8 q 7 7 b ( L A (.(.",
"(.(.) ^ 6.r.V.V.l.3.@.O.I h (.(.",
"(.(.(.(.1.6.j.t.x.y.;.@.(.(.(.(.",
"(.(.(.(.(.(.L.U.J.N.(.(.(.(.(.(."
};
